
<svg width="1280" height="720" viewBox="0 0 1280 720" fill="none" xmlns="http://www.w3.org/2000/svg">
<g clip-path="url(#clip0_1214_16036)">
<rect width="1280" height="720" fill="white"/>
<g clip-path="url(#clip1_1214_16036)">
<path d="M1292 0H-220V720H1292V0Z" fill="#90A8ED"/>
<path d="M605.88 217.422H470.75V426.812H605.88V217.422Z" fill="#F1F333" stroke="black" stroke-width="2" stroke-miterlimit="10" stroke-linecap="round"/>
<path d="M621.25 217.422H605.88V426.812H621.25V217.422Z" fill="white" stroke="black" stroke-width="2" stroke-miterlimit="10" stroke-linecap="round" stroke-linejoin="round"/>
<path d="M632.11 217.422H621.25V426.812H632.11V217.422Z" fill="white" stroke="black" stroke-width="2" stroke-miterlimit="10" stroke-linecap="round" stroke-linejoin="round"/>
<path d="M642.97 217.422H632.11V426.812H642.97V217.422Z" fill="white" stroke="black" stroke-width="2" stroke-miterlimit="10" stroke-linecap="round" stroke-linejoin="round"/>
<path d="M651.76 217.422H642.97V426.812H651.76V217.422Z" fill="white" stroke="black" stroke-width="2" stroke-miterlimit="10" stroke-linecap="round" stroke-linejoin="round"/>
<path d="M480.97 258.022H499.46C500.41 246.012 486.06 242.462 481.92 252.662C477.78 262.862 483.13 277.982 500.67 269.692" stroke="black" stroke-width="2" stroke-miterlimit="10" stroke-linecap="round"/>
<path d="M504.35 259.383H513.73" stroke="black" stroke-width="2" stroke-miterlimit="10"/>
<path d="M520.83 246.974V270.844H528.4C528.79 270.544 531.49 268.754 531.49 265.484C531.49 258.984 527.34 258.334 527.08 258.144C532.41 255.394 531.08 240.514 516.98 248.364" stroke="black" stroke-width="2" stroke-miterlimit="10" stroke-linecap="round"/>
<path d="M527.08 258.133H520.83" stroke="black" stroke-width="2" stroke-miterlimit="10"/>
<path d="M544.34 269.602C547.289 269.602 549.68 264.745 549.68 258.752C549.68 252.76 547.289 247.902 544.34 247.902C541.391 247.902 539 252.76 539 258.752C539 264.745 541.391 269.602 544.34 269.602Z" stroke="black" stroke-width="2" stroke-miterlimit="10" stroke-linecap="round"/>
<path d="M568.19 259.661C569.06 264.571 565.3 269.661 561.25 269.661C558.28 269.661 557.25 265.521 557.25 259.661C557.25 253.801 557.01 248.621 560.03 248.621C563.06 248.621 566.83 251.911 568.19 259.661Z" stroke="black" stroke-width="2" stroke-miterlimit="10" stroke-linecap="round"/>
<path d="M574.63 245.473V272.043" stroke="black" stroke-width="2" stroke-miterlimit="10" stroke-linecap="round"/>
<path d="M588.38 247.473L574.63 259.593" stroke="black" stroke-width="2" stroke-miterlimit="10" stroke-linecap="round"/>
<path d="M576.36 258.074L589.02 267.124" stroke="black" stroke-width="2" stroke-miterlimit="10" stroke-linecap="round"/>
<path d="M1150.25 198.999C1140.25 214.499 1095.25 206.249 1076 204.749C1057.25 199.248 1078 164.999 1105.75 150.999C1133.5 136.999 1164.25 152.749 1164.25 161.749C1164.25 170.749 1160.25 183.499 1150.25 198.999Z" fill="#23A094" stroke="black" stroke-width="2"/>
<path d="M1250.44 129.49L1244.18 118.53C1243.04 116.54 1240.68 115.6 1238.49 116.26L1191.43 130.57L1144.86 144.73L1057.97 171.16C1057.97 171.16 1055.47 189.75 1052.42 204.7L1243.87 146.06C1250.87 143.92 1254.07 135.84 1250.44 129.49ZM1246.56 550.69L726.27 304.6L1020.95 214.34C1021.47 206.63 1023.47 196.32 1026.43 184.81C1026.5 183.4 1026.58 182.02 1026.66 180.68L683.43 285.07C674.42 271.34 659.15 262.55 638.05 261.44C604.99 259.7 575.98 284.95 573.12 319.98C572.98 321.61 572.91 323.24 572.89 324.86H599.46C598.93 277.45 663.28 280.14 671.03 314.69C676.35 338.18 666.31 356.9 648.53 362.35L652.09 384.92C673.62 378.5 689.46 361.24 692.61 329.74C692.93 326.58 693.08 323.48 693.08 320.46L1237.31 576.12C1239.45 577.12 1242 576.46 1243.38 574.54L1250.25 564.97C1253.74 560.1 1251.97 553.26 1246.56 550.69ZM692.3 305.77C692.09 305.77 691.88 305.76 691.68 305.72C689.22 305.43 687.32 303.33 687.32 300.79C687.32 299.19 688.07 297.77 689.25 296.86C690.09 296.2 691.15 295.81 692.3 295.81C695.05 295.81 697.28 298.04 697.28 300.79C697.28 303.54 695.05 305.77 692.3 305.77Z" fill="black"/>
<path d="M1131.16 427.241C1131.16 427.241 1123.75 421.791 1108.07 418.151C1092.39 414.511 1055.61 410.261 1029.89 412.381C1011.26 414.591 1010.73 411.841 1002.82 408.251C994.91 404.661 975.91 395.361 970.85 402.021C965.79 408.681 975.91 425.051 987.09 432.221C973.3 448.241 962.55 466.821 966.7 480.391C970.85 493.961 997.9 476.141 1000.23 469.021C991.09 493.961 996.76 522.651 1022.4 496.461C1022.4 496.461 1020.36 529.561 1045.21 511.891C1048.24 508.541 1049.22 509.071 1049.22 509.071C1049.22 509.071 1044.21 535.601 1061.69 531.401C1069.64 528.811 1074.39 524.001 1081.01 509.221C1087.63 494.441 1094.86 478.931 1094.86 478.931L1139.4 500.001C1139.4 500.001 1157.3 497.191 1161.6 483.701C1159.95 480.661 1131.16 427.241 1131.16 427.241Z" fill="#23A094"/>
<path d="M1131.02 426.991C1100.86 408.031 1022.8 412.001 1013.35 413.561C1002.15 415.401 976 437.501 967.02 466.231C958.66 492.971 987.01 487.871 999.08 470.771C1006.61 460.101 1017.19 429.181 1035.14 424.481" stroke="black" stroke-width="2" stroke-miterlimit="10" stroke-linecap="round"/>
<path d="M999.71 469.84C986.13 504.16 1006.92 519.35 1023.59 494.79C1033.26 480.54 1041.25 433.7 1072.89 428.66" stroke="black" stroke-width="2" stroke-miterlimit="10" stroke-linecap="round"/>
<path d="M1026.31 489.911C1015.45 514.331 1034.94 528.201 1049.93 506.211C1057.69 494.821 1065.17 453.751 1093.03 450.871" stroke="black" stroke-width="2" stroke-miterlimit="10" stroke-linecap="round"/>
<path d="M1051.5 503.55C1040.96 544.7 1069.8 534.05 1077.95 516.01C1088.28 493.13 1097.08 473.16 1097.08 473.16" stroke="black" stroke-width="2" stroke-miterlimit="10" stroke-linecap="round"/>
<path d="M1013.35 413.559C988.02 400.309 970.06 393.879 969.58 406.219C969.1 418.559 987.74 432.749 987.74 432.749" stroke="black" stroke-width="2" stroke-miterlimit="10"/>
<path d="M1176.57 325.91L1255.52 455.66L1162 484.46L1131.02 426.99L1176.57 325.91Z" fill="#23A094" stroke="black" stroke-width="2" stroke-miterlimit="10"/>
<path d="M1202.01 367.711L1291.9 291.391L1291.98 395.151L1242.42 434.131L1202.01 367.711Z" fill="#F4F4F0" stroke="black" stroke-width="2" stroke-miterlimit="10"/>
<path d="M1104.41 80.9697L1128 -10L1232 -26L1191.83 97.9297L1104.41 80.9697Z" fill="#F4F4F0" stroke="black" stroke-width="2" stroke-miterlimit="10"/>
<path d="M1065.5 134.56L1063.03 73.0703L1208.43 100.33L1191.43 130.57L1188.19 136.34L1159.11 147.51C1159.11 147.51 1153.52 146.35 1144.86 144.73" fill="#23A094"/>
<path d="M1065.5 134.56L1063.03 73.0703L1208.43 100.33L1191.43 130.57L1188.19 136.34L1159.11 147.51C1159.11 147.51 1153.52 146.35 1144.86 144.73" stroke="black" stroke-width="2" stroke-miterlimit="10"/>
<path d="M1110.79 207.781C1110.79 226.751 1106.35 242.121 1097.85 242.121C1089.35 242.121 1084.18 226.741 1084.18 207.781C1084.18 188.821 1094.38 173.441 1097.85 173.441C1100.96 173.441 1110.79 188.811 1110.79 207.781Z" fill="#23A094" stroke="black" stroke-width="2" stroke-miterlimit="10"/>
<path d="M1082.35 210.068C1079.13 228.758 1073.59 243.878 1062.94 241.528C1052.28 239.178 1050.72 224.148 1053.95 205.458C1057.17 186.768 1069.34 174.078 1074.46 174.918C1079 175.728 1085.57 191.378 1082.35 210.068Z" fill="#23A094" stroke="black" stroke-width="2" stroke-miterlimit="10"/>
<path d="M1138.31 203.112C1138.31 222.822 1136.45 237.862 1125.38 237.862C1115.89 237.862 1111.44 222.712 1111.44 203.002C1111.44 183.292 1117.94 171.102 1125.38 171.102C1133.11 171.102 1138.31 183.402 1138.31 203.112Z" fill="#23A094" stroke="black" stroke-width="2" stroke-miterlimit="10"/>
<path d="M1166.21 196.421C1166.21 216.131 1163.21 231.111 1152.13 231.111C1142.64 231.111 1139.95 216.031 1139.95 196.321C1139.95 176.611 1144.57 165.441 1152.34 165.441C1159.07 165.441 1166.21 176.711 1166.21 196.421Z" fill="#23A094" stroke="black" stroke-width="2" stroke-miterlimit="10"/>
<path d="M817.82 473.331H321.65C317.29 473.331 313.75 469.791 313.75 465.431C313.75 461.071 317.29 457.531 321.65 457.531H817.82C822.18 457.531 825.72 461.071 825.72 465.431C825.72 469.791 822.18 473.331 817.82 473.331Z" fill="#23A094" stroke="black" stroke-width="2" stroke-miterlimit="10"/>
<path d="M810.17 473.332H325.57V732H810.17V473.332Z" fill="#23A094" stroke="black" stroke-width="2" stroke-miterlimit="10"/>
<path d="M325.57 585.23H810.17" stroke="black" stroke-width="2" stroke-miterlimit="10"/>
<path d="M400.54 69.9108C400.71 66.0208 401.05 56.6008 401.05 56.6008C401.458 45.9528 381.187 36.4303 371 33C380.847 28.9997 393.632 11.1992 366 -28.0008C331.46 -77.0008 237 -46.0008 214 -34.0008C191 -22.0008 180 18.9992 199.56 56.6108C225.7 103.531 264.51 92.9408 279.81 81.3008C282.43 110.071 306.92 124.681 336.96 104.311C327.29 139.491 352.39 164.801 389.63 137.641C394.15 173.861 428.74 139.591 443.13 168.991C451.69 157.941 453.01 137.001 451.15 132.701C449.28 128.361 433.43 121.181 417.41 131.261C427.81 113.611 429.25 101.441 424.64 95.3508C417.63 86.0908 392.85 93.5808 383 99.3308C397.38 82.2908 400.41 72.9608 400.54 69.9108Z" fill="white"/>
<path d="M401.05 56.6008C401.05 56.6008 400.71 66.0208 400.54 69.9108C400.41 72.9608 397.38 82.2908 383 99.3308C392.85 93.5808 417.63 86.0908 424.64 95.3508C429.25 101.441 427.81 113.611 417.41 131.261C433.43 121.181 449.28 128.361 451.15 132.701C453.01 137.001 451.69 157.941 443.13 168.991C428.74 139.591 394.15 173.861 389.63 137.641C352.39 164.801 327.29 139.491 336.96 104.311C306.92 124.681 282.43 110.071 279.81 81.3008C264.51 92.9408 225.7 103.531 199.56 56.6108C180 18.9992 191 -22.0008 214 -34.0008C237 -46.0008 331.46 -77.0008 366 -28.0008C393.632 11.1992 380.847 28.9997 371 33C381.187 36.4303 401.458 45.9528 401.05 56.6008ZM401.05 56.6008V56.6108" stroke="black" stroke-width="2" stroke-miterlimit="10" stroke-linecap="round" stroke-linejoin="round"/>
<path d="M755.92 203.929C794.07 214.509 801.15 185.129 794.15 174.959C819.9 178.329 825.25 174.999 825.33 168.019C825.42 159.079 798.86 151.369 798.86 151.369C826.3 155.659 855.05 155.879 846.65 145.509C839.39 136.549 826.44 129.499 815.51 125.819C843.96 129.059 868.93 130.209 869.74 117.839C870.55 105.469 843.57 93.9794 834.78 91.2094C890.08 91.7694 929.74 41.44 927 7C924.95 -42.0703 872.2 -78.2015 769 -31.0015C665.8 16.1985 712.053 74.2191 748.08 97.3295C726.42 99.5195 704.08 125.539 732.06 150.619C695.29 136.359 676.31 176.739 676.32 208.049C696.13 187.359 713.92 192.279 755.92 203.929Z" fill="white"/>
<path d="M760.08 150.229C760.08 150.229 785.73 162.729 794.15 174.959M794.15 174.959C801.15 185.129 794.07 214.509 755.92 203.929C713.92 192.279 696.13 187.359 676.32 208.049C676.31 176.739 695.29 136.359 732.06 150.619C704.08 125.539 726.42 99.5195 748.08 97.3295C712.053 74.2191 665.8 16.1985 769 -31.0015C872.2 -78.2015 924.95 -42.0703 927 7C929.74 41.44 890.08 91.7694 834.78 91.2094C843.57 93.9794 870.55 105.469 869.74 117.839C868.93 130.209 843.96 129.059 815.51 125.819C826.44 129.499 839.39 136.549 846.65 145.509C855.05 155.879 826.3 155.659 798.86 151.369C798.86 151.369 825.42 159.079 825.33 168.019C825.25 174.999 819.9 178.329 794.15 174.959Z" stroke="black" stroke-width="2" stroke-miterlimit="10" stroke-linecap="round" stroke-linejoin="round"/>
<path d="M495.77 204.74C482.98 184.12 514.93 177.55 493.42 151.81C481.35 137.37 486.02 124.33 489.94 118.21C495.96 108.82 495.03 105.58 493.11 100.04C490.06 91.23 472.03 86.39 487.62 67.5C493.11 61.25 496.28 56 493.11 48.75C489.94 41.5 481.75 39.75 481.25 30.5C480.75 21.25 492.26 21.5 489.94 12.5C487.62 3.5 479 4.5 479.25 -6.75" stroke="black" stroke-width="2" stroke-miterlimit="10" stroke-linecap="round"/>
<path d="M527.38 203.34C511.1 179.11 527.42 177.52 531.3 167.19C533.5 161.34 529.16 155.29 524.27 146.7C520.6 140.25 513.75 131.28 527.05 114.21C538.43 99.5997 508.78 88.7897 522.12 68.9297C527.05 60.25 530.45 53.75 528.75 42.5C527.05 31.25 517.75 30.25 516.75 16C515.95 4.6 523.283 -5.08333 527.05 -8.5" stroke="black" stroke-width="2" stroke-miterlimit="10" stroke-linecap="round"/>
<path d="M568.35 201.18C576.93 177.49 554.78 175.85 557.89 163.47C560.11 154.66 570.82 152.65 565.82 142.13C562.07 134.24 547.67 129.16 561.14 112.43C576.19 93.7402 539.55 90.9402 556.06 68.9102C565.82 54.25 564.39 47.75 561.14 39C557.89 30.25 547.25 23.25 547.5 8.5C547.7 -3.3 553.29 -10.75 556.06 -13" stroke="black" stroke-width="2" stroke-miterlimit="10" stroke-linecap="round"/>
<path d="M600.98 205.961C591.73 184.261 617.73 181.951 598.78 161.681C584.12 145.991 598.27 139.391 600.76 131.021C604.09 119.861 594.09 116.881 590.63 108.481C585.04 94.9112 610.9 85.9012 591.29 71.0312C580.25 62.75 580.87 47.5 585.75 40.5C590.63 33.5 604.56 27.75 598.78 13.5C594.156 2.1 588.167 -6.08333 585.75 -8.75" stroke="black" stroke-width="2" stroke-miterlimit="10" stroke-linecap="round"/>
<path d="M627.58 199.841C620.74 179.831 640.45 179.961 626.7 161.941C613.68 144.871 627.61 137.641 630.85 129.531C635 119.161 627.87 116.051 624.11 105.681C620.26 95.0513 644.99 85.2013 622.04 71.0312C612 64.5 619.9 51.75 626.7 41C633.5 30.25 618 22 618 10.75C618 1.75 620.693 -7 622.04 -10.25" stroke="black" stroke-width="2" stroke-miterlimit="10" stroke-linecap="round"/>
<path d="M57.09 75.7532C58.03 60.6232 46.36 56.6032 46.36 56.6032C22.072 44.122 -14.6667 51.4027 -30 56.6032C-87.5134 42.1374 -205.986 21.8852 -219.77 56.6032V328.213C-219.77 345.573 -176.28 346.043 -170.73 321.583C-159.8 349.343 -121.99 346.213 -115.92 319.853C-81.23 343.443 -71 337.023 -52.09 300.773C5.49998 362.003 34.29 322.283 44.52 283.603C86.15 354.713 132.8 315.343 149.8 271.633C194.03 339.103 238.95 286.023 243.29 262.783C273.29 328.863 308.67 293.133 322.37 270.583C334.51 296.953 359.32 306.343 374.92 298.683C394.7 288.973 417.07 244.573 417.07 244.573C417.07 244.573 431.81 253.943 440.23 264.263C438.75 229.803 424.15 197.233 406.99 195.343C389.83 193.453 370.95 217.003 360.65 238.873C363.66 191.803 340.02 188.763 327.05 197.193C312.23 206.823 295.02 224.413 295.02 224.413C295.02 224.413 300.67 198.543 282.54 189.043C263.06 178.833 243.58 186.203 228.26 202.283C234.5 167.483 233.37 152.343 219.56 137.783C205.76 123.223 173.79 128.713 150.15 149.703C150.72 109.423 142.77 79.9132 86.6 115.093C89.81 83.8832 88.49 72.9132 57.09 75.7532Z" fill="white" stroke="black" stroke-width="2" stroke-miterlimit="10" stroke-linecap="round" stroke-linejoin="round"/>
<path d="M-219.67 447.849C-202.67 410.699 -168.9 425.149 -160.49 447.009C-147.04 421.959 -130.4 421.959 -108.59 442.029C-100.96 389.909 -69.5999 421.469 -52.8999 442.179C-43.8999 378.099 -8.07993 424.319 11.7401 443.249C11.6001 389.899 42.0201 409.899 66.4101 427.089C70.0201 368.669 111.66 406.419 128.23 420.029C143.16 374.089 164.99 373.589 191.9 395.749C206.67 352.759 224.55 363.749 253.15 385.189C272.45 313.939 314.86 377.339 314.86 377.339C314.86 377.339 327.58 339.379 343.28 337.049C368.73 333.269 385.9 351.889 403.5 368.219C402.44 369.849 360.16 358.009 360.16 358.009C360.16 358.009 369.16 398.049 359.86 408.389C350.56 418.729 334.22 416.039 308.88 408.239C304.08 434.329 303.03 453.969 250.1 434.779C255.5 468.069 260 529.399 171.08 487.409C174.23 534.189 170.33 581.279 68.9701 522.949C82.1701 576.329 78.7201 595.669 59.0701 597.919C34.4901 600.729 -28.6499 559.079 -28.6499 559.079C-28.6499 559.079 -2.04993 615.359 -18.2999 622.059C-40.4899 631.209 -99.7199 573.929 -99.7199 573.929C-99.7199 573.929 -47.2399 649.499 -118.46 616.969C-98.6999 647.409 -117.11 662.849 -117.11 662.849H-219.67V447.849Z" fill="white" stroke="black" stroke-width="2" stroke-miterlimit="10" stroke-linecap="round" stroke-linejoin="round"/>
<path d="M501.4 406.802C501.85 405.852 503.26 405.972 503.54 406.982C509.66 428.812 497.73 450.992 490.88 445.252C483.3 438.892 495.07 420.142 501.4 406.802Z" fill="white" stroke="black" stroke-width="2" stroke-miterlimit="10" stroke-linecap="round" stroke-linejoin="round"/>
<path d="M548.51 395.73C548.74 394.51 550.58 394.4 550.97 395.59C558.35 418.08 551.81 449.37 542.45 443.42C535.37 438.92 545.21 413.03 548.51 395.73Z" fill="white" stroke="black" stroke-width="2" stroke-miterlimit="10" stroke-linecap="round" stroke-linejoin="round"/>
<path d="M669.37 414.581C669.23 413.971 669.9 413.511 670.43 413.841C687.73 424.331 685.93 438.731 681.05 438.301C676.35 437.891 671.26 422.841 669.37 414.581Z" fill="white" stroke="black" stroke-width="2" stroke-miterlimit="10" stroke-linecap="round" stroke-linejoin="round"/>
<path d="M444.33 387.029C444.22 386.359 443.41 386.049 442.88 386.479C426.26 399.879 426.02 415.359 431.88 418.289C437.49 421.089 447.64 407.279 444.33 387.029Z" fill="white" stroke="black" stroke-width="2" stroke-miterlimit="10" stroke-linecap="round" stroke-linejoin="round"/>
<path d="M443.93 312.401C443.55 310.741 441.7 309.881 440.2 310.691C427.56 317.481 421.11 338.341 429.66 342.541C438.28 346.781 446.43 323.351 443.93 312.401Z" fill="white" stroke="black" stroke-width="2" stroke-miterlimit="10" stroke-linecap="round" stroke-linejoin="round"/>
<path d="M1134.16 503.121C1141.95 501.671 1158.04 494.251 1162 484.461" stroke="black" stroke-width="2" stroke-miterlimit="10"/>
<path d="M1144.86 144.729L1057.97 171.159C1057.97 171.159 1055.47 189.749 1052.42 204.699C1051.26 210.369 1050.03 215.509 1048.81 218.919C1042.66 236.189 1021.18 230.539 1020.83 219.369C1020.78 217.849 1020.82 216.169 1020.95 214.339C1021.47 206.629 1023.47 196.319 1026.43 184.809C1026.5 183.399 1026.58 182.019 1026.66 180.679C1028.63 148.979 1034.45 135.329 1063.03 134.589C1063.82 134.569 1064.66 134.559 1065.5 134.559C1087.13 134.539 1124.49 140.929 1144.86 144.729Z" fill="#23A094" stroke="black" stroke-width="2" stroke-miterlimit="10"/>
</g>
</g>
<defs>
<clipPath id="clip0_1214_16036">
<rect width="1280" height="720" fill="white"/>
</clipPath>
<clipPath id="clip1_1214_16036">
<rect width="1518" height="720" fill="white" transform="translate(-223)"/>
</clipPath>
</defs>
</svg>
